0
SECTION
2
HEADER
9
$INSUNITS
70
4
9
$ACADVER
1
AC1014
9
$HANDSEED
5
FFFF
0
ENDSEC
0
SECTION
2
TABLES
0
TABLE
2
VPORT
5
8
100
AcDbSymbolTable
0
ENDTAB
0
TABLE
2
LTYPE
5
5
100
AcDbSymbolTable
0
LTYPE
5
14
100
AcDbSymbolTableRecord
100
AcDbLinetypeTableRecord
2
BYBLOCK
70
0
0
LTYPE
5
15
100
AcDbSymbolTableRecord
100
AcDbLinetypeTableRecord
2
BYLAYER
70
0
0
ENDTAB
0
TABLE
2
LAYER
5
2
100
AcDbSymbolTable
70
2
0
LAYER
5
50
100
AcDbSymbolTableRecord
100
AcDbLayerTableRecord
2
0
70
0
6
CONTINUOUS
0
ENDTAB
0
TABLE
2
STYLE
5
3
100
AcDbSymbolTable
70
1
0
STYLE
5
11
100
AcDbSymbolTableRecord
100
AcDbTextStyleTableRecord
2
STANDARD
70
0
0
ENDTAB
0
TABLE
2
VIEW
5
6
100
AcDbSymbolTable
70
0
0
ENDTAB
0
TABLE
2
UCS
5
7
100
AcDbSymbolTable
70
0
0
ENDTAB
0
TABLE
2
APPID
5
9
100
AcDbSymbolTable
70
2
0
APPID
5
12
100
AcDbSymbolTableRecord
100
AcDbRegAppTableRecord
2
ACAD
70
0
0
ENDTAB
0
TABLE
2
DIMSTYLE
5
A
100
AcDbSymbolTable
70
1
0
ENDTAB
0
TABLE
2
BLOCK_RECORD
5
1
100
AcDbSymbolTable
70
1
0
BLOCK_RECORD
5
1F
100
AcDbSymbolTableRecord
100
AcDbBlockTableRecord
2
*MODEL_SPACE
0
BLOCK_RECORD
5
1B
100
AcDbSymbolTableRecord
100
AcDbBlockTableRecord
2
*PAPER_SPACE
0
ENDTAB
0
ENDSEC
0
SECTION
2
BLOCKS
0
BLOCK
5
20
100
AcDbEntity
100
AcDbBlockBegin
2
*MODEL_SPACE
0
ENDBLK
5
21
100
AcDbEntity
100
AcDbBlockEnd
0
BLOCK
5
1C
100
AcDbEntity
100
AcDbBlockBegin
2
*PAPER_SPACE
0
ENDBLK
5
1D
100
AcDbEntity
100
AcDbBlockEnd
0
ENDSEC
0
SECTION
2
ENTITIES
0
CIRCLE
5
100
100
AcDbEntity
8
0
100
AcDbCircle
10
57.682235675292539
20
64.046196705971468
30
0
40
1.2645000000000006
210
0
220
-0
230
1
0
CIRCLE
5
101
100
AcDbEntity
8
0
100
AcDbCircle
10
64.046196705971454
20
57.682235675292546
30
0
40
1.2645000000000006
210
0
220
-0
230
1
0
CIRCLE
5
102
100
AcDbEntity
8
0
100
AcDbCircle
10
57.682235675292539
20
64.046196705971468
30
0
40
1.6000000000000023
210
0
220
0
230
1
0
CIRCLE
5
103
100
AcDbEntity
8
0
100
AcDbCircle
10
64.046196705971454
20
57.682235675292546
30
0
40
1.599999999999997
210
0
220
0
230
1
0
CIRCLE
5
104
100
AcDbEntity
8
0
100
AcDbCircle
10
-57.682235675292532
20
64.046196705971468
30
0
40
1.599999999999997
210
0
220
0
230
1
0
CIRCLE
5
105
100
AcDbEntity
8
0
100
AcDbCircle
10
-64.046196705971454
20
57.682235675292553
30
0
40
1.6000000000000023
210
0
220
0
230
1
0
CIRCLE
5
106
100
AcDbEntity
8
0
100
AcDbCircle
10
-64.046196705971468
20
-57.682235675292539
30
0
40
1.599999999999997
210
0
220
0
230
1
0
CIRCLE
5
107
100
AcDbEntity
8
0
100
AcDbCircle
10
-57.682235675292546
20
-64.046196705971454
30
0
40
1.6000000000000023
210
0
220
0
230
1
0
CIRCLE
5
108
100
AcDbEntity
8
0
100
AcDbCircle
10
57.682235675292532
20
-64.046196705971468
30
0
40
1.599999999999997
210
0
220
0
230
1
0
CIRCLE
5
109
100
AcDbEntity
8
0
100
AcDbCircle
10
64.046196705971454
20
-57.682235675292553
30
0
40
1.6000000000000023
210
0
220
0
230
1
0
LINE
5
110
100
AcDbEntity
8
0
100
AcDbLine
10
64.046196705971454
20
57.682235675292546
30
0
11
69.046196705971454
21
57.682235675292546
31
0
0
LWPOLYLINE
5
111
100
AcDbEntity
8
0
100
AcDbPolyline
90
44
70
1
43
0.0
10
49.875252139158846
20
89.473231885605529
10
46.722080566901042
20
86.32006031334771
42
0.41421356237309753
10
46.722080566901042
20
82.077419626228448
10
82.077419626228448
20
46.722080566901042
42
0.41421356237309442
10
86.32006031334771
20
46.722080566901056
10
89.473231885605486
20
49.875252139158817
42
-0.50367785142341082
10
92.65225021395878
20
49.402029617111708
42
-0.24994418006187105
10
92.652250213958752
20
-49.402029617111722
42
-0.50367785142340593
10
89.473231885605486
20
-49.87525213915886
10
86.320060313347696
20
-46.722080566901063
42
0.41421356237309753
10
82.077419626228419
20
-46.722080566901063
10
46.722080566901028
20
-82.077419626228462
42
0.41421356237309442
10
46.722080566901035
20
-86.320060313347739
10
49.875252139158817
20
-89.473231885605514
42
-0.50367785142341315
10
49.402029617111651
20
-92.652250213958808
42
-0.24994418006187083
10
-49.402029617111708
20
-92.652250213958766
42
-0.50367785142341037
10
-49.875252139158846
20
-89.473231885605514
10
-46.722080566901056
20
-86.32006031334771
42
0.41421356237309753
10
-46.722080566901056
20
-82.077419626228448
10
-82.077419626228448
20
-46.722080566901035
42
0.41421356237309442
10
-86.32006031334771
20
-46.722080566901042
10
-89.473231885605514
20
-49.875252139158832
42
-0.50367785142340382
10
-92.65225021395878
20
-49.402029617111666
42
-0.24994418006187094
10
-92.652250213958752
20
49.402029617111708
42
-0.50367785142341281
10
-89.473231885605486
20
49.87525213915886
10
-86.320060313347696
20
46.722080566901063
42
0.41421356237309753
10
-82.077419626228419
20
46.722080566901063
10
-46.722080566901028
20
82.077419626228462
42
0.41421356237309442
10
-46.722080566901035
20
86.320060313347739
10
-49.875252139158817
20
89.473231885605514
42
-0.50367785142341315
10
-49.402029617111836
20
92.652250213958695
42
-0.017463047983143982
10
-42.815533980582515
20
95.874032198283913
42
-0.54332093442369234
10
-40
20
94.047860156411858
10
-40
20
92.915772528071315
42
0.16227766016837861
10
-37.999999999999986
20
86.915772528071329
10
-28
20
73.582439194738001
42
0.23606797749978975
10
-20
20
69.582439194738001
10
20
20
69.582439194738001
42
0.23606797749978975
10
28
20
73.582439194738001
10
37.999999999999986
20
86.915772528071329
42
0.16227766016837861
10
40
20
92.915772528071315
10
40
20
94.047860156411858
42
-0.54332093442369234
10
42.815533980582217
20
95.874032198284084
42
-0.017463047983144315
10
49.402029617111651
20
92.652250213958766
42
-0.50367785142342358
0
CIRCLE
5
112
100
AcDbEntity
8
0
100
AcDbCircle
10
0
20
106.58243919473801
30
0
40
37.000000000000014
210
0
220
0
230
1
0
LINE
5
113
100
AcDbEntity
8
0
100
AcDbLine
10
0
20
106.58243919473801
30
0
11
-3.0000000000000004
21
106.58243919473801
31
0
0
CIRCLE
5
114
100
AcDbEntity
8
0
100
AcDbCircle
10
-3.0000000000000004
20
106.58243919473801
30
0
40
37
210
0
220
0
230
1
0
LINE
5
115
100
AcDbEntity
8
0
100
AcDbLine
10
0
20
106.58243919473801
30
0
11
3.0000000000000004
21
106.58243919473801
31
0
0
CIRCLE
5
116
100
AcDbEntity
8
0
100
AcDbCircle
10
3.0000000000000004
20
106.58243919473801
30
0
40
37
210
0
220
0
230
1
0
CIRCLE
5
117
100
AcDbEntity
8
0
100
AcDbCircle
10
-4.5000000000000142
20
-97.5
30
0
40
1.0999999999999999
210
0
220
0
230
1
0
CIRCLE
5
118
100
AcDbEntity
8
0
100
AcDbCircle
10
4.4999999999995657
20
-97.500000000000014
30
0
40
1.0999999999999999
210
0
220
0
230
1
0
CIRCLE
5
119
100
AcDbEntity
8
0
100
AcDbCircle
10
-4.4999999999999991
20
-12.5
30
0
40
1.100000000000001
210
0
220
0
230
1
0
CIRCLE
5
120
100
AcDbEntity
8
0
100
AcDbCircle
10
4.5000000000000009
20
-12.5
30
0
40
1.100000000000001
210
0
220
0
230
1
0
LWPOLYLINE
5
121
100
AcDbEntity
8
0
100
AcDbPolyline
90
8
70
1
43
0.0
10
5.4999999999999947
20
-95
10
-5.5000000000000284
20
-94.999999999999986
42
-0.41421356237309509
10
-7.4999999999999991
20
-93
10
-7.4999999999999982
20
-17
42
-0.41421356237309553
10
-5.4999999999999991
20
-15
10
5.5000000000000018
20
-15
42
-0.41421356237309553
10
7.5000000000000009
20
-17
10
7.4999999999999893
20
-93
42
-0.41421356237309509
0
LWPOLYLINE
5
122
100
AcDbEntity
8
0
100
AcDbPolyline
90
8
70
1
43
0.0
10
95
20
5.4999999999999805
10
95
20
-5.5000000000000204
42
-0.41421356237309698
10
93
20
-7.5000000000000258
10
16.999999999999996
20
-7.5000000000000009
42
-0.41421356237309553
10
14.999999999999998
20
-5.5000000000000027
10
15
20
5.4999999999999982
42
-0.41421356237309553
10
17
20
7.4999999999999982
10
93
20
7.4999999999999831
42
-0.41421356237309653
0
CIRCLE
5
123
100
AcDbEntity
8
0
100
AcDbCircle
10
97.5
20
-4.5000000000000204
30
0
40
1.0999999999999999
210
0
220
0
230
1
0
CIRCLE
5
124
100
AcDbEntity
8
0
100
AcDbCircle
10
97.500000000000014
20
4.4999999999995595
30
0
40
1.0999999999999999
210
0
220
0
230
1
0
CIRCLE
5
125
100
AcDbEntity
8
0
100
AcDbCircle
10
12.5
20
4.4999999999999982
30
0
40
1.100000000000001
210
0
220
0
230
1
0
CIRCLE
5
126
100
AcDbEntity
8
0
100
AcDbCircle
10
12.5
20
-4.5000000000000018
30
0
40
1.100000000000001
210
0
220
0
230
1
0
LWPOLYLINE
5
127
100
AcDbEntity
8
0
100
AcDbPolyline
90
8
70
1
43
0.0
10
-5.4999999999999991
20
15
10
5.5000000000000018
20
15
42
0.41421356237309553
10
7.5000000000000009
20
17
10
7.5000000000000009
20
60
42
0.41421356237309259
10
5.5000000000000018
20
62
10
-5.4999999999999503
20
62
42
0.41421356237309259
10
-7.4999999999999512
20
60
10
-7.4999999999999991
20
17
42
0.41421356237309553
0
CIRCLE
5
128
100
AcDbEntity
8
0
100
AcDbCircle
10
-4.5
20
12.5
30
0
40
1.100000000000001
210
0
220
0
230
1
0
CIRCLE
5
129
100
AcDbEntity
8
0
100
AcDbCircle
10
4.5000000000000009
20
12.5
30
0
40
1.100000000000001
210
0
220
0
230
1
0
LWPOLYLINE
5
130
100
AcDbEntity
8
0
100
AcDbPolyline
90
8
70
1
43
0.0
10
-95
20
-5.4999999999999698
10
-95
20
5.500000000000032
42
-0.41421356237309698
10
-93
20
7.5000000000000373
10
-16.999999999999996
20
7.5000000000000009
42
-0.41421356237309553
10
-14.999999999999998
20
5.5000000000000027
10
-15
20
-5.4999999999999982
42
-0.41421356237309553
10
-17
20
-7.4999999999999982
10
-93
20
-7.4999999999999725
42
-0.41421356237309653
0
CIRCLE
5
131
100
AcDbEntity
8
0
100
AcDbCircle
10
-97.5
20
4.500000000000032
30
0
40
1.0999999999999999
210
0
220
0
230
1
0
CIRCLE
5
132
100
AcDbEntity
8
0
100
AcDbCircle
10
-97.500000000000014
20
-4.4999999999995479
30
0
40
1.0999999999999999
210
0
220
0
230
1
0
CIRCLE
5
133
100
AcDbEntity
8
0
100
AcDbCircle
10
-12.5
20
-4.4999999999999982
30
0
40
1.100000000000001
210
0
220
0
230
1
0
CIRCLE
5
134
100
AcDbEntity
8
0
100
AcDbCircle
10
-12.5
20
4.5000000000000018
30
0
40
1.100000000000001
210
0
220
0
230
1
0
CIRCLE
5
135
100
AcDbEntity
8
0
100
AcDbCircle
10
-4.9999999999999991
20
64.5
30
0
40
1.0999999999999999
210
0
220
0
230
1
0
CIRCLE
5
136
100
AcDbEntity
8
0
100
AcDbCircle
10
5.0000000000000009
20
64.5
30
0
40
1.25
210
0
220
0
230
1
0
CIRCLE
5
137
100
AcDbEntity
8
0
100
AcDbCircle
10
90.887445447978592
20
44.461038576785725
30
0
40
2.9999999999999982
210
0
220
0
230
1
0
CIRCLE
5
138
100
AcDbEntity
8
0
100
AcDbCircle
10
90.887445447978592
20
44.461038576785725
30
0
40
1.6000000000000012
210
0
220
0
230
1
0
CIRCLE
5
139
100
AcDbEntity
8
0
100
AcDbCircle
10
-90.887445447978592
20
-44.461038576785718
30
0
40
2.9999999999999982
210
0
220
0
230
1
0
CIRCLE
5
140
100
AcDbEntity
8
0
100
AcDbCircle
10
-90.887445447978592
20
-44.461038576785718
30
0
40
1.6000000000000012
210
0
220
0
230
1
0
CIRCLE
5
141
100
AcDbEntity
8
0
100
AcDbCircle
10
44.461038576785711
20
-90.887445447978607
30
0
40
2.9999999999999982
210
0
220
0
230
1
0
CIRCLE
5
142
100
AcDbEntity
8
0
100
AcDbCircle
10
44.461038576785711
20
-90.887445447978607
30
0
40
1.6000000000000012
210
0
220
0
230
1
0
CIRCLE
5
143
100
AcDbEntity
8
0
100
AcDbCircle
10
90.887445447978592
20
-44.461038576785754
30
0
40
2.9999999999999982
210
0
220
0
230
1
0
CIRCLE
5
144
100
AcDbEntity
8
0
100
AcDbCircle
10
90.887445447978592
20
-44.461038576785754
30
0
40
1.6000000000000014
210
0
220
0
230
1
0
CIRCLE
5
145
100
AcDbEntity
8
0
100
AcDbCircle
10
-90.887445447978592
20
44.461038576785761
30
0
40
2.9999999999999982
210
0
220
0
230
1
0
CIRCLE
5
146
100
AcDbEntity
8
0
100
AcDbCircle
10
-90.887445447978592
20
44.461038576785761
30
0
40
1.6000000000000014
210
0
220
0
230
1
0
CIRCLE
5
147
100
AcDbEntity
8
0
100
AcDbCircle
10
-44.461038576785768
20
-90.887445447978564
30
0
40
2.9999999999999982
210
0
220
0
230
1
0
CIRCLE
5
148
100
AcDbEntity
8
0
100
AcDbCircle
10
-44.461038576785768
20
-90.887445447978564
30
0
40
1.6000000000000014
210
0
220
0
230
1
0
ARC
5
149
100
AcDbEntity
8
0
100
AcDbCircle
10
90.887445447978592
20
-44.461038576785754
30
0
40
4.8284271247462254
210
0
220
-0
230
1
100
AcDbArc
50
62.428125011550705
51
224.99999999999963
0
ARC
5
150
100
AcDbEntity
8
0
100
AcDbCircle
10
90.887445447978592
20
44.461038576785725
30
0
40
4.8284271247462014
210
0
220
0
230
1
100
AcDbArc
50
135
51
297.57187498844951
0
ARC
5
151
100
AcDbEntity
8
0
100
AcDbCircle
10
0
20
0
30
0
40
102.50000000000003
210
-0
220
0
230
1
100
AcDbArc
50
-22.776554852215803
51
22.776554852215771
0
ARC
5
152
100
AcDbEntity
8
0
100
AcDbCircle
10
93.585196851234912
20
39.294540718980521
30
0
40
0.99999999999999978
210
0
220
-0
230
1
100
AcDbArc
50
22.776554852215622
51
117.57187498844949
0
ARC
5
153
100
AcDbEntity
8
0
100
AcDbCircle
10
93.585196851234912
20
-39.294540718980521
30
0
40
0.99999999999999811
210
0
220
0
230
1
100
AcDbArc
50
242.42812501155046
51
337.22344514778297
0
ARC
5
154
100
AcDbEntity
8
0
100
AcDbCircle
10
-90.887445447978592
20
44.461038576785761
30
0
40
4.8284271247462254
210
0
220
0
230
1
100
AcDbArc
50
-117.57187498844931
51
44.999999999999638
0
CIRCLE
5
155
100
AcDbEntity
8
0
100
AcDbCircle
10
-90.887445447978592
20
44.461038576785761
30
0
40
2.9999999999999982
210
0
220
0
230
1
0
CIRCLE
5
156
100
AcDbEntity
8
0
100
AcDbCircle
10
-90.887445447978592
20
44.461038576785761
30
0
40
1.6000000000000014
210
0
220
0
230
1
0
ARC
5
157
100
AcDbEntity
8
0
100
AcDbCircle
10
-93.585196851234912
20
39.294540718980535
30
0
40
0.99999999999999412
210
0
220
-0
230
1
100
AcDbArc
50
62.428125011550499
51
157.22344514778334
0
ARC
5
158
100
AcDbEntity
8
0
100
AcDbCircle
10
0
20
0
30
0
40
102.50000000000003
210
0
220
0
230
1
100
AcDbArc
50
157.22344514778422
51
202.77655485221575
0
ARC
5
159
100
AcDbEntity
8
0
100
AcDbCircle
10
-90.887445447978592
20
-44.461038576785718
30
0
40
4.8284271247462014
210
0
220
0
230
1
100
AcDbArc
50
-44.99999999999995
51
117.57187498844948
0
ARC
5
160
100
AcDbEntity
8
0
100
AcDbCircle
10
-93.585196851234912
20
-39.294540718980507
30
0
40
0.99999999999999978
210
0
220
0
230
1
100
AcDbArc
50
202.77655485221561
51
297.57187498844928
0
ARC
5
161
100
AcDbEntity
8
0
100
AcDbCircle
10
-44.461038576785768
20
-90.887445447978564
30
0
40
4.8284271247462254
210
0
220
0
230
1
100
AcDbArc
50
-27.571874988449469
51
134.99999999999977
0
CIRCLE
5
162
100
AcDbEntity
8
0
100
AcDbCircle
10
-44.461038576785768
20
-90.887445447978564
30
0
40
2.9999999999999982
210
0
220
0
230
1
0
CIRCLE
5
163
100
AcDbEntity
8
0
100
AcDbCircle
10
-44.461038576785768
20
-90.887445447978564
30
0
40
1.6000000000000014
210
0
220
0
230
1
0
ARC
5
164
100
AcDbEntity
8
0
100
AcDbCircle
10
-39.294540718980542
20
-93.585196851234912
30
0
40
1.0000000000000024
210
0
220
0
230
1
100
AcDbArc
50
152.42812501154978
51
247.22344514778294
0
ARC
5
165
100
AcDbEntity
8
0
100
AcDbCircle
10
0
20
0
30
0
40
102.50000000000003
210
0
220
0
230
1
100
AcDbArc
50
247.22344514778419
51
292.77655485221572
0
ARC
5
166
100
AcDbEntity
8
0
100
AcDbCircle
10
44.461038576785711
20
-90.887445447978607
30
0
40
4.8284271247462014
210
0
220
-0
230
1
100
AcDbArc
50
45.000000000000057
51
207.57187498844945
0
ARC
5
167
100
AcDbEntity
8
0
100
AcDbCircle
10
39.2945407189805
20
-93.585196851234912
30
0
40
0.99999999999999978
210
0
220
0
230
1
100
AcDbArc
50
-67.223445147784403
51
27.571874988448585
0
CIRCLE
5
168
100
AcDbEntity
8
0
100
AcDbCircle
10
18
20
-3.4315984397504836e-15
30
0
40
1.5000000000000013
210
0
220
0
230
1
0
CIRCLE
5
169
100
AcDbEntity
8
0
100
AcDbCircle
10
23
20
-3.4315984397504836e-15
30
0
40
1.5000000000000013
210
0
220
0
230
1
0
CIRCLE
5
170
100
AcDbEntity
8
0
100
AcDbCircle
10
33
20
-3.4315984397504836e-15
30
0
40
1.5000000000000013
210
0
220
0
230
1
0
CIRCLE
5
171
100
AcDbEntity
8
0
100
AcDbCircle
10
28
20
-3.4315984397504836e-15
30
0
40
1.5000000000000013
210
0
220
0
230
1
0
CIRCLE
5
172
100
AcDbEntity
8
0
100
AcDbCircle
10
53
20
-3.4315984397504796e-15
30
0
40
1.5000000000000013
210
0
220
0
230
1
0
CIRCLE
5
173
100
AcDbEntity
8
0
100
AcDbCircle
10
48
20
-3.4315984397504796e-15
30
0
40
1.5000000000000013
210
0
220
0
230
1
0
CIRCLE
5
174
100
AcDbEntity
8
0
100
AcDbCircle
10
43
20
-3.4315984397504796e-15
30
0
40
1.5000000000000013
210
0
220
0
230
1
0
CIRCLE
5
175
100
AcDbEntity
8
0
100
AcDbCircle
10
38
20
-3.4315984397504796e-15
30
0
40
1.5000000000000013
210
0
220
0
230
1
0
CIRCLE
5
176
100
AcDbEntity
8
0
100
AcDbCircle
10
93
20
-3.4315984397504757e-15
30
0
40
1.5000000000000013
210
0
220
0
230
1
0
CIRCLE
5
177
100
AcDbEntity
8
0
100
AcDbCircle
10
88
20
-3.4315984397504757e-15
30
0
40
1.5000000000000013
210
0
220
0
230
1
0
CIRCLE
5
178
100
AcDbEntity
8
0
100
AcDbCircle
10
83
20
-3.4315984397504757e-15
30
0
40
1.5000000000000013
210
0
220
0
230
1
0
CIRCLE
5
179
100
AcDbEntity
8
0
100
AcDbCircle
10
78
20
-3.4315984397504757e-15
30
0
40
1.5000000000000013
210
0
220
0
230
1
0
CIRCLE
5
180
100
AcDbEntity
8
0
100
AcDbCircle
10
73
20
-3.4315984397504796e-15
30
0
40
1.5000000000000013
210
0
220
0
230
1
0
CIRCLE
5
181
100
AcDbEntity
8
0
100
AcDbCircle
10
58
20
-3.4315984397504796e-15
30
0
40
1.5000000000000013
210
0
220
0
230
1
0
CIRCLE
5
182
100
AcDbEntity
8
0
100
AcDbCircle
10
63
20
-3.4315984397504796e-15
30
0
40
1.5000000000000013
210
0
220
0
230
1
0
CIRCLE
5
183
100
AcDbEntity
8
0
100
AcDbCircle
10
68
20
-3.4315984397504796e-15
30
0
40
1.5000000000000013
210
0
220
0
230
1
0
ENDSEC
0
SECTION
2
OBJECTS
0
DICTIONARY
5
C
100
AcDbDictionary
3
ACAD_GROUP
350
D
3
ACAD_MLINESTYLE
350
17
0
DICTIONARY
5
D
100
AcDbDictionary
0
DICTIONARY
5
1A
330
C
100
AcDbDictionary
0
DICTIONARY
5
17
100
AcDbDictionary
0
ENDSEC
0
EOF
