0
SECTION
2
HEADER
9
$INSUNITS
70
4
9
$ACADVER
1
AC1014
9
$HANDSEED
5
FFFF
0
ENDSEC
0
SECTION
2
TABLES
0
TABLE
2
VPORT
5
8
100
AcDbSymbolTable
0
ENDTAB
0
TABLE
2
LTYPE
5
5
100
AcDbSymbolTable
0
LTYPE
5
14
100
AcDbSymbolTableRecord
100
AcDbLinetypeTableRecord
2
BYBLOCK
70
0
0
LTYPE
5
15
100
AcDbSymbolTableRecord
100
AcDbLinetypeTableRecord
2
BYLAYER
70
0
0
ENDTAB
0
TABLE
2
LAYER
5
2
100
AcDbSymbolTable
70
2
0
LAYER
5
50
100
AcDbSymbolTableRecord
100
AcDbLayerTableRecord
2
0
70
0
6
CONTINUOUS
0
ENDTAB
0
TABLE
2
STYLE
5
3
100
AcDbSymbolTable
70
1
0
STYLE
5
11
100
AcDbSymbolTableRecord
100
AcDbTextStyleTableRecord
2
STANDARD
70
0
0
ENDTAB
0
TABLE
2
VIEW
5
6
100
AcDbSymbolTable
70
0
0
ENDTAB
0
TABLE
2
UCS
5
7
100
AcDbSymbolTable
70
0
0
ENDTAB
0
TABLE
2
APPID
5
9
100
AcDbSymbolTable
70
2
0
APPID
5
12
100
AcDbSymbolTableRecord
100
AcDbRegAppTableRecord
2
ACAD
70
0
0
ENDTAB
0
TABLE
2
DIMSTYLE
5
A
100
AcDbSymbolTable
70
1
0
ENDTAB
0
TABLE
2
BLOCK_RECORD
5
1
100
AcDbSymbolTable
70
1
0
BLOCK_RECORD
5
1F
100
AcDbSymbolTableRecord
100
AcDbBlockTableRecord
2
*MODEL_SPACE
0
BLOCK_RECORD
5
1B
100
AcDbSymbolTableRecord
100
AcDbBlockTableRecord
2
*PAPER_SPACE
0
ENDTAB
0
ENDSEC
0
SECTION
2
BLOCKS
0
BLOCK
5
20
100
AcDbEntity
100
AcDbBlockBegin
2
*MODEL_SPACE
0
ENDBLK
5
21
100
AcDbEntity
100
AcDbBlockEnd
0
BLOCK
5
1C
100
AcDbEntity
100
AcDbBlockBegin
2
*PAPER_SPACE
0
ENDBLK
5
1D
100
AcDbEntity
100
AcDbBlockEnd
0
ENDSEC
0
SECTION
2
ENTITIES
0
LWPOLYLINE
5
100
100
AcDbEntity
8
0
100
AcDbPolyline
90
10
70
1
43
0.0
10
47.680390627576003
20
16.5039870340356
42
-2.4142135623730945
10
45.880390627576006
20
18.3039870340356
10
41.8273164981101
20
18.3039870340356
10
41.8273164981101
20
16.3039870340356
10
27.827316498110104
20
16.3039870340356
10
27.827316498110104
20
18.3039870340356
10
22.780390627576001
20
18.303987034035604
42
-2.4142135623730945
10
20.980390627576
20
16.5039870340356
10
20.980390627576
20
-9.5560129659643618
10
47.68039062757601
20
-9.5560129659643511
0
LWPOLYLINE
5
101
100
AcDbEntity
8
0
100
AcDbPolyline
90
4
70
1
43
0.0
10
21.080390627576001
20
10.2439870340356
10
21.080390627576001
20
-5.2560129659643611
10
47.580390627576001
20
-5.2560129659643611
10
47.580390627576001
20
10.2439870340356
0
CIRCLE
5
102
100
AcDbEntity
8
0
100
AcDbCircle
10
35.600390627575997
20
-7.2060129659643612
30
0
40
0.5
210
0
220
0
230
1
0
CIRCLE
5
103
100
AcDbEntity
8
0
100
AcDbCircle
10
33.060390627575998
20
-7.2060129659643612
30
0
40
0.5
210
0
220
0
230
1
0
CIRCLE
5
104
100
AcDbEntity
8
0
100
AcDbCircle
10
30.520390627576003
20
-7.2060129659643612
30
0
40
0.5
210
0
220
0
230
1
0
CIRCLE
5
105
100
AcDbEntity
8
0
100
AcDbCircle
10
38.140390627575997
20
-7.2060129659643612
30
0
40
0.5
210
0
220
0
230
1
0
CIRCLE
5
106
100
AcDbEntity
8
0
100
AcDbCircle
10
22.780390627576001
20
-7.05601296596436
30
0
40
1
210
0
220
0
230
1
0
CIRCLE
5
107
100
AcDbEntity
8
0
100
AcDbCircle
10
45.880390627576006
20
-7.05601296596436
30
0
40
1
210
0
220
0
230
1
0
CIRCLE
5
108
100
AcDbEntity
8
0
100
AcDbCircle
10
45.880390627576006
20
-7.05601296596436
30
0
40
1.1000000000000032
210
0
220
0
230
1
0
LINE
5
109
100
AcDbEntity
8
0
100
AcDbLine
10
47.68039062757601
20
-9.5560129659643493
30
0
11
47.680390627576003
21
16.5039870340356
31
0
0
LINE
5
110
100
AcDbEntity
8
0
100
AcDbLine
10
45.880390627576006
20
18.3039870340356
30
0
11
41.8273164981101
21
18.3039870340356
31
0
0
LINE
5
111
100
AcDbEntity
8
0
100
AcDbLine
10
41.8273164981101
20
16.3039870340356
30
0
11
41.8273164981101
21
18.3039870340356
31
0
0
LINE
5
112
100
AcDbEntity
8
0
100
AcDbLine
10
41.8273164981101
20
16.3039870340356
30
0
11
27.827316498110104
21
16.3039870340356
31
0
0
LINE
5
113
100
AcDbEntity
8
0
100
AcDbLine
10
27.827316498110104
20
16.3039870340356
30
0
11
27.827316498110104
21
18.3039870340356
31
0
0
LINE
5
114
100
AcDbEntity
8
0
100
AcDbLine
10
22.780390627576001
20
18.3039870340356
30
0
11
27.827316498110104
21
18.3039870340356
31
0
0
LINE
5
115
100
AcDbEntity
8
0
100
AcDbLine
10
20.980390627576
20
16.5039870340356
30
0
11
20.980390627576
21
-9.5560129659643618
31
0
0
LINE
5
116
100
AcDbEntity
8
0
100
AcDbLine
10
20.980390627576
20
-9.5560129659643618
30
0
11
47.68039062757601
21
-9.5560129659643493
31
0
0
CIRCLE
5
117
100
AcDbEntity
8
0
100
AcDbCircle
10
22.780390627576001
20
-7.05601296596436
30
0
40
1.0999999999999988
210
0
220
0
230
1
0
LINE
5
118
100
AcDbEntity
8
0
100
AcDbLine
10
47.580390627576001
20
10.2439870340356
30
0
11
21.080390627576001
21
10.2439870340356
31
0
0
LINE
5
119
100
AcDbEntity
8
0
100
AcDbLine
10
21.080390627576001
20
-5.2560129659643611
30
0
11
47.580390627576001
21
-5.2560129659643611
31
0
0
ARC
5
120
100
AcDbEntity
8
0
100
AcDbCircle
10
45.880390627576006
20
16.5039870340356
30
0
40
1.7999999999999994
210
-0
220
0
230
1
100
AcDbArc
50
-270
51
0
0
ARC
5
121
100
AcDbEntity
8
0
100
AcDbCircle
10
22.780390627576001
20
16.5039870340356
30
0
40
1.8000000000000016
210
0
220
-0
230
1
100
AcDbArc
50
-180
51
90
0
ENDSEC
0
SECTION
2
OBJECTS
0
DICTIONARY
5
C
100
AcDbDictionary
3
ACAD_GROUP
350
D
3
ACAD_MLINESTYLE
350
17
0
DICTIONARY
5
D
100
AcDbDictionary
0
DICTIONARY
5
1A
330
C
100
AcDbDictionary
0
DICTIONARY
5
17
100
AcDbDictionary
0
ENDSEC
0
EOF
